<svg viewBox="0 0 200 200" width="400" height="400" xmlns="http://www.w3.org/2000/svg">
  <!-- black cube -->
  <g fill="none" stroke="#000000e6" stroke-width="36" stroke-linecap="round" stroke-linejoin="round">
    <path d="M100 18 L170 59 L170 141 L100 182 L30 141 L30 59 Z"/>
    <path d="M30 59 L100 100 L170 59 M100 100 L100 182"/>
  </g>
  <!-- cyan L -->
  <path fill="none" stroke="#00ffffe6" stroke-width="36" stroke-linecap="round" stroke-linejoin="round" d="M100 182 L30 141 L30 59 L100 18"/>
  <!-- cyan top + left faces-->
  <path d="M100 18 L170 59 L100 100 L100 182 L30 141 L30 59 Z" fill="#00ffff80" stroke="transparent"/>
  <!-- magenta M -->
  <path fill="none" stroke="#ff00ffe6" stroke-width="25" stroke-linecap="round" stroke-linejoin="round" d="M30 141 L30 59 L100 100 L170 59 L170 141"/>
  <!-- magenta left + right faces -->
  <path d="M30 141 L30 59 L100 100 L170 59 L170 141 L100 182 Z" fill="#ff00ff80" stroke="transparent"/>
  <!-- yellow S -->
  <path fill="none" stroke="#ffff00e6" stroke-width="16" stroke-linecap="round" stroke-linejoin="round" d="M30 59 L100 18 M30 59 L100 100 M170 59 L100 100 M170 59 L170 141 L100 182"/>
  <!-- yellow top + right faces -->
  <path d="M100 18 L30 59 L100 100 L100 182 L170 141 L170 59 Z" fill="#ffff0080" stroke="transparent"/>
</svg>
